<svg width="154" height="26" viewBox="0 0 154 26" fill="none" xmlns="http://www.w3.org/2000/svg">
<path fill-rule="evenodd" clip-rule="evenodd" d="M12.9339 3.43149C10.6347 3.43149 8.42944 4.32831 6.80319 5.92521C5.17689 7.52216 4.26293 9.68844 4.26293 11.9476V20.31C4.26266 20.3305 4.26651 20.3508 4.27434 20.3697C4.28216 20.3886 4.29371 20.4057 4.30823 20.4199C4.32274 20.4342 4.33991 20.4453 4.35869 20.4528C4.37747 20.4603 4.39752 20.464 4.41768 20.4637L4.42584 20.4636L12.9339 20.4637C14.0723 20.4637 15.1996 20.2435 16.2515 19.8157C17.3034 19.3878 18.2593 18.7607 19.0645 17.97C19.8698 17.1793 20.5086 16.2405 20.9445 15.2071C21.3804 14.1738 21.6048 13.0662 21.6048 11.9476C21.6048 10.829 21.3804 9.72142 20.9445 8.68808C20.5086 7.65473 19.8698 6.71593 19.0645 5.92521C18.2593 5.13449 17.3034 4.50736 16.2515 4.07952C15.1996 3.65168 14.0723 3.43149 12.9339 3.43149ZM12.9339 21.6666H4.42923C4.24615 21.6684 4.06456 21.6344 3.89501 21.5667C3.72399 21.4985 3.56874 21.3973 3.43838 21.2693C3.30802 21.1413 3.20519 20.9891 3.13587 20.8216C3.06713 20.6555 3.03269 20.4778 3.03449 20.2987V11.9476C3.03449 9.37049 4.07704 6.8986 5.93334 5.0758C7.7897 3.25295 10.3078 2.22858 12.9339 2.22858C14.2341 2.22858 15.5216 2.48006 16.7227 2.96862C17.9239 3.45718 19.0152 4.17323 19.9344 5.0758C20.8535 5.97837 21.5825 7.04979 22.0799 8.22883C22.5773 9.40788 22.8332 10.6715 22.8332 11.9476C22.8332 13.2237 22.5773 14.4873 22.0799 15.6664C21.5825 16.8454 20.8535 17.9168 19.9344 18.8194C19.0152 19.722 17.9239 20.438 16.7227 20.9266C15.5216 21.4151 14.2341 21.6666 12.9339 21.6666Z" fill="white"/>
<path fill-rule="evenodd" clip-rule="evenodd" d="M9.09009 10.7584C9.09009 10.4262 9.36508 10.1569 9.70431 10.1569H15.7598C16.0991 10.1569 16.3741 10.4262 16.3741 10.7584C16.3741 11.0906 16.0991 11.3598 15.7598 11.3598H9.70431C9.36508 11.3598 9.09009 11.0906 9.09009 10.7584Z" fill="#BB2121"/>
<path fill-rule="evenodd" clip-rule="evenodd" d="M9.09009 13.9296C9.09009 13.5975 9.36508 13.3282 9.70431 13.3282H15.7598C16.0991 13.3282 16.3741 13.5975 16.3741 13.9296C16.3741 14.2618 16.0991 14.5311 15.7598 14.5311H9.70431C9.36508 14.5311 9.09009 14.2618 9.09009 13.9296Z" fill="#BB2121"/>
<path d="M27.791 21V19.7695L29.3828 19.4961V8.29492L27.791 8.02148V6.78125H32.8984V8.02148L31.3066 8.29492V19.4961L32.8984 19.7695V21H27.791ZM38.1523 21.166C37.3711 21.166 36.7493 20.9382 36.2871 20.4824C35.8314 20.0202 35.6035 19.2845 35.6035 18.2754V11.8594H33.9336V10.4336H35.6035V7.88477H37.5273V10.4336H39.8223V11.8594H37.5273V18.2754C37.5273 18.7832 37.6283 19.1576 37.8301 19.3984C38.0319 19.6393 38.3021 19.7598 38.6406 19.7598C38.8685 19.7598 39.1224 19.7402 39.4023 19.7012C39.6823 19.6556 39.9004 19.6165 40.0566 19.584L40.3203 20.8438C40.0404 20.9284 39.6953 21.0033 39.2852 21.0684C38.8815 21.1335 38.5039 21.166 38.1523 21.166ZM46.1699 21.2051C45.1934 21.2051 44.3438 20.9837 43.6211 20.541C42.8984 20.0918 42.3385 19.4701 41.9414 18.6758C41.5508 17.8815 41.3555 16.9635 41.3555 15.9219V15.4922C41.3555 14.4896 41.5605 13.5944 41.9707 12.8066C42.3874 12.0124 42.9375 11.3874 43.6211 10.9316C44.3112 10.4694 45.0632 10.2383 45.877 10.2383C46.8275 10.2383 47.6217 10.4336 48.2598 10.8242C48.9043 11.2148 49.3893 11.765 49.7148 12.4746C50.0404 13.1777 50.2031 14.0078 50.2031 14.9648V16.166H43.3477L43.3184 16.2148C43.3314 16.8919 43.4486 17.4941 43.6699 18.0215C43.8978 18.5423 44.2233 18.9525 44.6465 19.252C45.0697 19.5514 45.5775 19.7012 46.1699 19.7012C46.821 19.7012 47.3906 19.61 47.8789 19.4277C48.3737 19.2389 48.8001 18.9818 49.1582 18.6562L49.9102 19.9062C49.5326 20.2708 49.0312 20.5801 48.4062 20.834C47.7878 21.0814 47.0423 21.2051 46.1699 21.2051ZM43.4062 14.6621H48.2793V14.4082C48.2793 13.9004 48.1882 13.4479 48.0059 13.0508C47.8301 12.6471 47.5632 12.3314 47.2051 12.1035C46.8535 11.8691 46.4108 11.752 45.877 11.752C45.4473 11.752 45.0566 11.8789 44.7051 12.1328C44.3535 12.3802 44.0638 12.7188 43.8359 13.1484C43.6081 13.5781 43.4583 14.0664 43.3867 14.6133L43.4062 14.6621ZM56.873 21.2051C55.916 21.2051 55.0827 20.9837 54.373 20.541C53.6634 20.0918 53.1133 19.4701 52.7227 18.6758C52.332 17.8815 52.1367 16.9635 52.1367 15.9219V15.5117C52.1367 14.5091 52.3255 13.6107 52.7031 12.8164C53.0807 12.0221 53.6243 11.3939 54.334 10.9316C55.0436 10.4694 55.89 10.2383 56.873 10.2383C57.7259 10.2383 58.4714 10.3783 59.1094 10.6582C59.7539 10.9382 60.2943 11.3223 60.7305 11.8105L60.7793 14.3496H59.2754L58.9434 12.5039C58.722 12.276 58.4453 12.0938 58.1133 11.957C57.7812 11.8203 57.3906 11.752 56.9414 11.752C56.3685 11.752 55.8639 11.9212 55.4277 12.2598C54.998 12.5983 54.6628 13.0508 54.4219 13.6172C54.181 14.1836 54.0605 14.8151 54.0605 15.5117V15.9219C54.0605 16.6901 54.1712 17.3574 54.3926 17.9238C54.6204 18.4902 54.9427 18.9297 55.3594 19.2422C55.7826 19.5482 56.2839 19.7012 56.8633 19.7012C57.5143 19.7012 58.0547 19.5221 58.4844 19.1641C58.9141 18.806 59.1777 18.3145 59.2754 17.6895H61.0039L61.0234 17.748C60.9909 18.3535 60.8118 18.9199 60.4863 19.4473C60.1608 19.9746 59.6953 20.401 59.0898 20.7266C58.4909 21.0456 57.752 21.2051 56.873 21.2051Z" fill="#BB2121"/>
<path d="M72.7031 21.2051C71.8372 21.2051 71.0039 21.0781 70.2031 20.8242C69.4023 20.5703 68.6374 20.1797 67.9082 19.6523V16.6152H69.4023L69.7246 18.8516C70.1478 19.112 70.6068 19.3138 71.1016 19.457C71.5964 19.6003 72.1302 19.6719 72.7031 19.6719C73.3542 19.6719 73.9043 19.5742 74.3535 19.3789C74.8092 19.1771 75.1576 18.9004 75.3984 18.5488C75.6393 18.1973 75.7598 17.7871 75.7598 17.3184C75.7598 16.8822 75.6556 16.498 75.4473 16.166C75.2389 15.834 74.8939 15.5443 74.4121 15.2969C73.9368 15.043 73.2858 14.8216 72.459 14.6328C71.4824 14.4049 70.6556 14.1022 69.9785 13.7246C69.3079 13.3405 68.7969 12.8783 68.4453 12.3379C68.1003 11.791 67.9277 11.166 67.9277 10.4629C67.9277 9.7207 68.123 9.05664 68.5137 8.4707C68.9108 7.88477 69.4609 7.42253 70.1641 7.08398C70.8672 6.74544 71.6875 6.57617 72.625 6.57617C73.6211 6.57617 74.5 6.72917 75.2617 7.03516C76.0299 7.33464 76.6615 7.69922 77.1562 8.12891V10.9707H75.6621L75.3398 8.93945C75.0469 8.70508 74.6823 8.50977 74.2461 8.35352C73.8099 8.19727 73.2695 8.11914 72.625 8.11914C72.0781 8.11914 71.5964 8.2168 71.1797 8.41211C70.763 8.60091 70.4375 8.86784 70.2031 9.21289C69.9688 9.55794 69.8516 9.96484 69.8516 10.4336C69.8516 10.8438 69.9557 11.2018 70.1641 11.5078C70.3789 11.8138 70.724 12.084 71.1992 12.3184C71.681 12.5462 72.3223 12.7611 73.123 12.9629C74.6204 13.334 75.7533 13.8841 76.5215 14.6133C77.2962 15.3359 77.6836 16.2311 77.6836 17.2988C77.6836 18.0605 77.4785 18.7376 77.0684 19.3301C76.6582 19.916 76.0788 20.375 75.3301 20.707C74.5879 21.0391 73.7122 21.2051 72.7031 21.2051ZM84.0996 21.2051C83.123 21.2051 82.2734 20.9837 81.5508 20.541C80.8281 20.0918 80.2682 19.4701 79.8711 18.6758C79.4805 17.8815 79.2852 16.9635 79.2852 15.9219V15.4922C79.2852 14.4896 79.4902 13.5944 79.9004 12.8066C80.3171 12.0124 80.8672 11.3874 81.5508 10.9316C82.2409 10.4694 82.9928 10.2383 83.8066 10.2383C84.7572 10.2383 85.5514 10.4336 86.1895 10.8242C86.834 11.2148 87.319 11.765 87.6445 12.4746C87.9701 13.1777 88.1328 14.0078 88.1328 14.9648V16.166H81.2773L81.248 16.2148C81.2611 16.8919 81.3783 17.4941 81.5996 18.0215C81.8275 18.5423 82.153 18.9525 82.5762 19.252C82.9993 19.5514 83.5072 19.7012 84.0996 19.7012C84.7507 19.7012 85.3203 19.61 85.8086 19.4277C86.3034 19.2389 86.7298 18.9818 87.0879 18.6562L87.8398 19.9062C87.4622 20.2708 86.9609 20.5801 86.3359 20.834C85.7174 21.0814 84.972 21.2051 84.0996 21.2051ZM81.3359 14.6621H86.209V14.4082C86.209 13.9004 86.1178 13.4479 85.9355 13.0508C85.7598 12.6471 85.4928 12.3314 85.1348 12.1035C84.7832 11.8691 84.3405 11.752 83.8066 11.752C83.377 11.752 82.9863 11.8789 82.6348 12.1328C82.2832 12.3802 81.9935 12.7188 81.7656 13.1484C81.5378 13.5781 81.388 14.0664 81.3164 14.6133L81.3359 14.6621ZM89.6172 21V19.7695L91.209 19.4961V11.9473L89.6172 11.6738V10.4336H92.9277L93.0938 11.7812L93.1133 11.9668C93.4128 11.4264 93.7806 11.0033 94.2168 10.6973C94.6595 10.3913 95.1641 10.2383 95.7305 10.2383C95.9323 10.2383 96.1374 10.2578 96.3457 10.2969C96.5605 10.3294 96.7135 10.362 96.8047 10.3945L96.5508 12.1816L95.2129 12.1035C94.7051 12.071 94.2786 12.1882 93.9336 12.4551C93.5885 12.7155 93.3216 13.0671 93.1328 13.5098V19.4961L94.7246 19.7695V21H89.6172ZM102.537 21L98.7773 11.8203L97.6836 11.6738V10.4336H102.117V11.6738L100.74 11.8691L103.084 17.8848L103.357 18.7344H103.416L103.729 17.8848L105.906 11.8691L104.49 11.6738V10.4336H108.914V11.6738L107.801 11.8203L104.227 21H102.537ZM109.861 21V19.7695L111.453 19.4961V11.9473L109.861 11.6738V10.4336H113.377V19.4961L114.969 19.7695V21H109.861ZM111.355 7.82617V5.76562H113.377V7.82617H111.355ZM121.072 21.2051C120.115 21.2051 119.282 20.9837 118.572 20.541C117.863 20.0918 117.312 19.4701 116.922 18.6758C116.531 17.8815 116.336 16.9635 116.336 15.9219V15.5117C116.336 14.5091 116.525 13.6107 116.902 12.8164C117.28 12.0221 117.824 11.3939 118.533 10.9316C119.243 10.4694 120.089 10.2383 121.072 10.2383C121.925 10.2383 122.671 10.3783 123.309 10.6582C123.953 10.9382 124.493 11.3223 124.93 11.8105L124.979 14.3496H123.475L123.143 12.5039C122.921 12.276 122.645 12.0938 122.312 11.957C121.98 11.8203 121.59 11.752 121.141 11.752C120.568 11.752 120.063 11.9212 119.627 12.2598C119.197 12.5983 118.862 13.0508 118.621 13.6172C118.38 14.1836 118.26 14.8151 118.26 15.5117V15.9219C118.26 16.6901 118.37 17.3574 118.592 17.9238C118.82 18.4902 119.142 18.9297 119.559 19.2422C119.982 19.5482 120.483 19.7012 121.062 19.7012C121.714 19.7012 122.254 19.5221 122.684 19.1641C123.113 18.806 123.377 18.3145 123.475 17.6895H125.203L125.223 17.748C125.19 18.3535 125.011 18.9199 124.686 19.4473C124.36 19.9746 123.895 20.401 123.289 20.7266C122.69 21.0456 121.951 21.2051 121.072 21.2051ZM131.795 21.2051C130.818 21.2051 129.969 20.9837 129.246 20.541C128.523 20.0918 127.964 19.4701 127.566 18.6758C127.176 17.8815 126.98 16.9635 126.98 15.9219V15.4922C126.98 14.4896 127.186 13.5944 127.596 12.8066C128.012 12.0124 128.562 11.3874 129.246 10.9316C129.936 10.4694 130.688 10.2383 131.502 10.2383C132.452 10.2383 133.247 10.4336 133.885 10.8242C134.529 11.2148 135.014 11.765 135.34 12.4746C135.665 13.1777 135.828 14.0078 135.828 14.9648V16.166H128.973L128.943 16.2148C128.956 16.8919 129.074 17.4941 129.295 18.0215C129.523 18.5423 129.848 18.9525 130.271 19.252C130.695 19.5514 131.202 19.7012 131.795 19.7012C132.446 19.7012 133.016 19.61 133.504 19.4277C133.999 19.2389 134.425 18.9818 134.783 18.6562L135.535 19.9062C135.158 20.2708 134.656 20.5801 134.031 20.834C133.413 21.0814 132.667 21.2051 131.795 21.2051ZM129.031 14.6621H133.904V14.4082C133.904 13.9004 133.813 13.4479 133.631 13.0508C133.455 12.6471 133.188 12.3314 132.83 12.1035C132.479 11.8691 132.036 11.752 131.502 11.752C131.072 11.752 130.682 11.8789 130.33 12.1328C129.979 12.3802 129.689 12.7188 129.461 13.1484C129.233 13.5781 129.083 14.0664 129.012 14.6133L129.031 14.6621Z" fill="white"/>
</svg>
